<svg viewBox="0 0 100 100" xmlns="http://www.w3.org/2000/svg">
  <defs>
    <radialGradient id="appleGrad" cx="35%" cy="35%" r="65%">
      <stop offset="0%" stop-color="#ff7675"/>
      <stop offset="100%" stop-color="#d63031"/>
    </radialGradient>
  </defs>
  <!-- Apple Body -->
  <path d="M 50 85 C 25 85, 15 70, 15 45 C 15 22, 32 20, 50 30 C 68 20, 85 22, 85 45 C 85 70, 75 85, 50 85 Z" fill="url(#appleGrad)"/>
  <!-- Stem -->
  <path d="M 50 28 Q 53 14, 60 8" stroke="#8d6e63" stroke-width="4" fill="none" stroke-linecap="round"/>
  <!-- Leaf -->
  <path d="M 52 24 Q 65 20, 68 10 Q 56 12, 52 24" fill="#2ecc71"/>
  <!-- Face -->
  <circle cx="40" cy="48" r="4.5" fill="#2d3436"/>
  <circle cx="60" cy="48" r="4.5" fill="#2d3436"/>
  <circle cx="42" cy="46.5" r="1.5" fill="#ffffff"/>
  <circle cx="62" cy="46.5" r="1.5" fill="#ffffff"/>
  <path d="M 46 56 Q 50 61, 54 56" stroke="#2d3436" stroke-width="3.5" fill="none" stroke-linecap="round"/>
  <circle cx="34" cy="52" r="4.5" fill="#ff7675" opacity="0.6"/>
  <circle cx="66" cy="52" r="4.5" fill="#ff7675" opacity="0.6"/>
</svg>