<svg viewBox="0 0 100 100" xmlns="http://www.w3.org/2000/svg">
  <!-- Ears -->
  <polygon points="20,40 12,12 40,25" fill="#ffeaa7" stroke="#2d3436" stroke-width="3" stroke-linejoin="round"/>
  <polygon points="23,37 17,17 37,26" fill="#ff7675"/>
  <polygon points="80,40 88,12 60,25" fill="#ffeaa7" stroke="#2d3436" stroke-width="3" stroke-linejoin="round"/>
  <polygon points="77,37 83,17 63,26" fill="#ff7675"/>
  <!-- Head -->
  <ellipse cx="50" cy="50" rx="38" ry="32" fill="#ffeaa7" stroke="#2d3436" stroke-width="3"/>
  <!-- Face -->
  <circle cx="38" cy="46" r="4.5" fill="#2d3436"/>
  <circle cx="62" cy="46" r="4.5" fill="#2d3436"/>
  <circle cx="39.5" cy="44.5" r="1.5" fill="#ffffff"/>
  <circle cx="63.5" cy="44.5" r="1.5" fill="#ffffff"/>
  <!-- Nose/Mouth -->
  <polygon points="48,53 52,53 50,55" fill="#ff7675"/>
  <path d="M 46 56 Q 50 60, 50 56 Q 50 60, 54 56" stroke="#2d3436" stroke-width="2.5" fill="none" stroke-linecap="round"/>
  <!-- Whiskers -->
  <line x1="18" y1="50" x2="6" y2="49" stroke="#2d3436" stroke-width="2.5" stroke-linecap="round"/>
  <line x1="18" y1="54" x2="5" y2="56" stroke="#2d3436" stroke-width="2.5" stroke-linecap="round"/>
  <line x1="82" y1="50" x2="94" y2="49" stroke="#2d3436" stroke-width="2.5" stroke-linecap="round"/>
  <line x1="82" y1="54" x2="95" y2="56" stroke="#2d3436" stroke-width="2.5" stroke-linecap="round"/>
  <!-- Blush -->
  <circle cx="28" cy="53" r="3.5" fill="#ff7675" opacity="0.6"/>
  <circle cx="72" cy="53" r="3.5" fill="#ff7675" opacity="0.6"/>
</svg>