<svg viewBox="0 0 100 100" xmlns="http://www.w3.org/2000/svg">
  <!-- Ears -->
  <path d="M 12 30 C 8 45, 10 65, 18 65 C 24 65, 22 45, 20 30 Z" fill="#d35400" stroke="#2d3436" stroke-width="3"/>
  <path d="M 88 30 C 92 45, 90 65, 82 65 C 76 65, 78 45, 80 30 Z" fill="#d35400" stroke="#2d3436" stroke-width="3"/>
  <!-- Head -->
  <circle cx="50" cy="48" r="33" fill="#f39c12" stroke="#2d3436" stroke-width="3"/>
  <!-- Snout -->
  <ellipse cx="50" cy="58" rx="14" ry="10" fill="#f1c40f"/>
  <!-- Nose -->
  <ellipse cx="50" cy="53" rx="5" ry="3.5" fill="#2d3436"/>
  <!-- Tongue -->
  <path d="M 47 62 C 47 70, 53 70, 53 62 Z" fill="#ff7675" stroke="#2d3436" stroke-width="2"/>
  <!-- Mouth Line -->
  <path d="M 46 58 Q 50 62, 54 58" stroke="#2d3436" stroke-width="2" fill="none"/>
  <!-- Eyes -->
  <circle cx="40" cy="42" r="4" fill="#2d3436"/>
  <circle cx="60" cy="42" r="4" fill="#2d3436"/>
  <circle cx="41.5" cy="40.5" r="1.5" fill="#ffffff"/>
  <circle cx="61.5" cy="40.5" r="1.5" fill="#ffffff"/>
</svg>