<svg viewBox="0 0 100 100" xmlns="http://www.w3.org/2000/svg">
  <!-- Stem -->
  <path d="M 50 25 Q 52 10, 62 8" stroke="#8d6e63" stroke-width="4.5" fill="none" stroke-linecap="round"/>
  <!-- Leaf -->
  <path d="M 48 20 Q 32 15, 30 5 Q 45 10, 48 20" fill="#2ecc71" stroke="#2d3436" stroke-width="2"/>
  <!-- Grape Grapes (Triangle layout) -->
  <!-- Row 1 -->
  <circle cx="38" cy="35" r="10" fill="#9b59b6" stroke="#2d3436" stroke-width="2"/>
  <circle cx="50" cy="33" r="10" fill="#8e44ad" stroke="#2d3436" stroke-width="2"/>
  <circle cx="62" cy="35" r="10" fill="#9b59b6" stroke="#2d3436" stroke-width="2"/>
  <!-- Row 2 -->
  <circle cx="44" cy="50" r="10" fill="#8e44ad" stroke="#2d3436" stroke-width="2"/>
  <circle cx="56" cy="50" r="10" fill="#9b59b6" stroke="#2d3436" stroke-width="2"/>
  <!-- Row 3 -->
  <circle cx="50" cy="66" r="10" fill="#8e44ad" stroke="#2d3436" stroke-width="2"/>
  <!-- Highlights -->
  <circle cx="36" cy="31" r="3" fill="#ffffff" opacity="0.3"/>
  <circle cx="48" cy="29" r="3" fill="#ffffff" opacity="0.3"/>
  <circle cx="60" cy="31" r="3" fill="#ffffff" opacity="0.3"/>
  <circle cx="42" cy="46" r="3" fill="#ffffff" opacity="0.3"/>
  <circle cx="54" cy="46" r="3" fill="#ffffff" opacity="0.3"/>
  <circle cx="48" cy="62" r="3" fill="#ffffff" opacity="0.3"/>
  <!-- Cute Face on front grape -->
  <circle cx="47" cy="48" r="2" fill="#ffffff"/>
  <circle cx="53" cy="48" r="2" fill="#ffffff"/>
  <path d="M 49 52 Q 50 54, 51 52" stroke="#ffffff" stroke-width="1.5" fill="none"/>
</svg>