<svg viewBox="0 0 100 100" xmlns="http://www.w3.org/2000/svg">
  <!-- Tentacles -->
  <path d="M 30 50 Q 25 70, 32 90" stroke="#fd79a8" stroke-width="4.5" fill="none" stroke-linecap="round"/>
  <path d="M 43 50 Q 48 72, 40 92" stroke="#a29bfe" stroke-width="4.5" fill="none" stroke-linecap="round"/>
  <path d="M 57 50 Q 52 68, 60 92" stroke="#a29bfe" stroke-width="4.5" fill="none" stroke-linecap="round"/>
  <path d="M 70 50 Q 75 70, 68 90" stroke="#fd79a8" stroke-width="4.5" fill="none" stroke-linecap="round"/>
  <!-- Body -->
  <path d="M 22 50 C 22 24, 78 24, 78 50 C 78 53, 22 53, 22 50 Z" fill="#ff7675" stroke="#2d3436" stroke-width="3" stroke-linejoin="round"/>
  <!-- Ruff/Skirt -->
  <path d="M 22 50 Q 29 55, 36 50 Q 43 55, 50 50 Q 57 55, 64 50 Q 71 55, 78 50" fill="none" stroke="#2d3436" stroke-width="3"/>
  <!-- Face -->
  <circle cx="40" cy="38" r="3.5" fill="#2d3436"/>
  <circle cx="60" cy="38" r="3.5" fill="#2d3436"/>
  <path d="M 46 44 Q 50 47, 54 44" stroke="#2d3436" stroke-width="2.5" fill="none" stroke-linecap="round"/>
  <circle cx="34" cy="41" r="2.5" fill="#fd79a8" opacity="0.6"/>
  <circle cx="66" cy="41" r="2.5" fill="#fd79a8" opacity="0.6"/>
</svg>