<svg viewBox="0 0 100 100" xmlns="http://www.w3.org/2000/svg">
  <!-- Mane (Orange spikes) -->
  <path d="M 50 8 C 22 8, 8 22, 8 50 C 8 78, 22 92, 50 92 C 78 92, 92 78, 92 50 C 92 22, 78 8, 50 8 Z" fill="#e67e22" stroke="#2d3436" stroke-width="3"/>
  <path d="M 50 14 C 28 14, 14 28, 14 50 C 14 72, 28 86, 50 86 C 72 86, 86 72, 86 50 C 86 28, 72 14, 50 14 Z" fill="#f39c12"/>
  <!-- Head -->
  <circle cx="50" cy="50" r="28" fill="#f1c40f" stroke="#2d3436" stroke-width="3"/>
  <!-- Ears -->
  <circle cx="28" cy="28" r="8" fill="#f1c40f" stroke="#2d3436" stroke-width="2.5"/>
  <circle cx="28" cy="28" r="4.5" fill="#e67e22"/>
  <circle cx="72" cy="28" r="8" fill="#f1c40f" stroke="#2d3436" stroke-width="2.5"/>
  <circle cx="72" cy="28" r="4.5" fill="#e67e22"/>
  <!-- Face -->
  <circle cx="42" cy="45" r="3.5" fill="#2d3436"/>
  <circle cx="58" cy="45" r="3.5" fill="#2d3436"/>
  <!-- Snout -->
  <ellipse cx="50" cy="56" rx="7" ry="5.5" fill="#ffffff"/>
  <polygon points="47,53 53,53 50,55.5" fill="#2d3436"/>
  <path d="M 47 57 Q 50 60, 50 57 Q 50 60, 53 57" stroke="#2d3436" stroke-width="2" fill="none"/>
</svg>