<svg viewBox="0 0 100 100" xmlns="http://www.w3.org/2000/svg">
  <!-- Wings -->
  <ellipse cx="18" cy="56" rx="8" ry="18" fill="#2d3436" transform="rotate(-15 18 56)"/>
  <ellipse cx="82" cy="56" rx="8" ry="18" fill="#2d3436" transform="rotate(15 82 56)"/>
  <!-- Body Outer -->
  <ellipse cx="50" cy="50" rx="30" ry="38" fill="#2d3436" stroke="#2d3436" stroke-width="2"/>
  <!-- Belly Inner -->
  <path d="M 50 82 C 34 82, 24 72, 24 50 C 24 28, 34 22, 50 22 C 66 22, 76 28, 76 50 C 76 72, 66 82, 50 82 Z" fill="#ffffff"/>
  <!-- Eyes -->
  <circle cx="42" cy="36" r="3.5" fill="#2d3436"/>
  <circle cx="58" cy="36" r="3.5" fill="#2d3436"/>
  <!-- Beak -->
  <polygon points="46,41 54,41 50,47" fill="#f1c40f" stroke="#2d3436" stroke-width="2"/>
  <!-- Blush -->
  <circle cx="34" cy="40" r="3" fill="#ff7675" opacity="0.6"/>
  <circle cx="66" cy="40" r="3" fill="#ff7675" opacity="0.6"/>
  <!-- Feet -->
  <ellipse cx="38" cy="86" rx="8" ry="5" fill="#f1c40f" stroke="#2d3436" stroke-width="2"/>
  <ellipse cx="62" cy="86" rx="8" ry="5" fill="#f1c40f" stroke="#2d3436" stroke-width="2"/>
</svg>