<svg viewBox="0 0 100 100" xmlns="http://www.w3.org/2000/svg">
  <!-- Sea Waves -->
  <path d="M 5 82 Q 25 78, 45 82 Q 65 86, 85 82 Q 95 80, 98 82 L 98 94 L 5 94 Z" fill="#74b9ff"/>
  <path d="M 2 85 Q 22 81, 42 85 Q 62 89, 82 85 Q 92 83, 98 85 L 98 96 L 2 96 Z" fill="#2980b9"/>
  <!-- Hull -->
  <polygon points="20,64 80,64 70,82 26,82" fill="#f1c40f" stroke="#2d3436" stroke-width="3" stroke-linejoin="round"/>
  <circle cx="36" cy="72" r="3" fill="#ffffff" stroke="#2d3436" stroke-width="1.5"/>
  <circle cx="50" cy="72" r="3" fill="#ffffff" stroke="#2d3436" stroke-width="1.5"/>
  <circle cx="64" cy="72" r="3" fill="#ffffff" stroke="#2d3436" stroke-width="1.5"/>
  <!-- Mast -->
  <line x1="50" y1="64" x2="50" y2="20" stroke="#2d3436" stroke-width="3" stroke-linecap="round"/>
  <!-- Sails -->
  <path d="M 47 24 L 24 58 L 47 58 Z" fill="#ffeaa7" stroke="#2d3436" stroke-width="2"/>
  <path d="M 53 20 L 76 58 L 53 58 Z" fill="#ff7675" stroke="#2d3436" stroke-width="2"/>
</svg>